<svg width="46" height="46" viewBox="0 0 46 46" fill="none" xmlns="http://www.w3.org/2000/svg">
<path d="M23 4.67188C19.375 4.67187 15.8315 5.7468 12.8174 7.76072C9.8034 9.77464 7.45424 12.6371 6.06703 15.9861C4.67982 19.3352 4.31686 23.0203 5.02405 26.5756C5.73125 30.1309 7.47683 33.3967 10.0401 35.9599C12.6033 38.5232 15.8691 40.2688 19.4244 40.976C22.9797 41.6832 26.6649 41.3202 30.0139 39.933C33.3629 38.5458 36.2254 36.1966 38.2393 33.1826C40.2532 30.1685 41.3281 26.625 41.3281 23C41.3224 18.1408 39.3896 13.4823 35.9536 10.0464C32.5177 6.61041 27.8592 4.67758 23 4.67188ZM24.0781 39.1359V26.9531H28.75C29.0359 26.9531 29.3102 26.8395 29.5124 26.6374C29.7145 26.4352 29.8281 26.1609 29.8281 25.875C29.8281 25.5891 29.7145 25.3148 29.5124 25.1126C29.3102 24.9105 29.0359 24.7969 28.75 24.7969H24.0781V20.125C24.0781 19.2672 24.4189 18.4445 25.0255 17.838C25.632 17.2314 26.4547 16.8906 27.3125 16.8906H30.1875C30.4734 16.8906 30.7477 16.777 30.9499 16.5748C31.152 16.3727 31.2656 16.0984 31.2656 15.8125C31.2656 15.5266 31.152 15.2523 30.9499 15.0502C30.7477 14.848 30.4734 14.7344 30.1875 14.7344H27.3125C25.8828 14.7344 24.5117 15.3023 23.5008 16.3133C22.4898 17.3242 21.9219 18.6953 21.9219 20.125V24.7969H17.25C16.9641 24.7969 16.6898 24.9105 16.4877 25.1126C16.2855 25.3148 16.1719 25.5891 16.1719 25.875C16.1719 26.1609 16.2855 26.4352 16.4877 26.6374C16.6898 26.8395 16.9641 26.9531 17.25 26.9531H21.9219V39.1359C17.7356 38.8562 13.8218 36.9605 11.0071 33.849C8.19245 30.7376 6.6972 26.654 6.83713 22.4607C6.97706 18.2674 8.74123 14.2926 11.7571 11.3757C14.7729 8.45878 18.8044 6.82816 23 6.82816C27.1957 6.82816 31.2271 8.45878 34.2429 11.3757C37.2588 14.2926 39.023 18.2674 39.1629 22.4607C39.3028 26.654 37.8076 30.7376 34.9929 33.849C32.1782 36.9605 28.2645 38.8562 24.0781 39.1359Z" fill="white"/>
</svg>
