<svg width="38" height="38" viewBox="0 0 38 38" fill="none" xmlns="http://www.w3.org/2000/svg">
<path d="M20.1716 8.661C23.9082 10.2918 25.8874 14.2977 25.2066 18.1452C26.2393 19.0367 27.068 20.1402 27.6363 21.3806C28.2046 22.6209 28.4991 23.9691 28.4999 25.3335V25.6027C29.0086 25.4237 29.544 25.3327 30.0832 25.3335C31.343 25.3335 32.5512 25.8339 33.442 26.7247C34.3328 27.6155 34.8332 28.8237 34.8332 30.0835C34.8332 31.3433 34.3328 32.5515 33.442 33.4423C32.5512 34.3331 31.343 34.8335 30.0832 34.8335H9.49989C7.82019 34.8335 6.20928 34.1662 5.02155 32.9785C3.83382 31.7908 3.16656 30.1799 3.16656 28.5002C3.16656 26.8205 3.83382 25.2096 5.02155 24.0218C6.20928 22.8341 7.82019 22.1668 9.49989 22.1668H9.92739C7.91656 19.7127 7.28322 16.2135 8.70822 13.0785C9.64374 10.9736 11.3765 9.32608 13.5258 8.4978C15.6752 7.66953 18.0654 7.72822 20.1716 8.661ZM18.8891 11.5585C16.0866 10.2918 12.8091 11.5743 11.5741 14.361C10.8457 15.976 10.9724 17.7652 11.7324 19.206C12.6242 18.1475 13.7369 17.297 14.9924 16.7144C16.2479 16.1317 17.6158 15.8311 18.9999 15.8335C20.1082 15.8335 21.1849 16.0235 22.1666 16.3718C22.1196 15.3447 21.7883 14.3508 21.2096 13.5009C20.6309 12.651 19.8275 11.9786 18.8891 11.5585ZM21.4541 5.7635C20.5832 5.3835 19.7124 5.11434 18.8099 4.94017L22.7524 2.88184L24.1774 7.45767C23.3485 6.77503 22.4327 6.20534 21.4541 5.7635ZM9.64239 7.03017C8.86656 7.58434 8.18572 8.21767 7.59989 8.91434L7.77406 4.46517L12.4607 5.54184C11.4791 5.87434 10.5291 6.381 9.64239 7.03017ZM28.4999 15.3743C28.3574 14.4402 28.1516 13.5377 27.8507 12.6668L31.6191 15.0418L28.3732 18.5727C28.5474 17.5435 28.5791 16.4668 28.4999 15.3743ZM4.81322 17.8918C4.92406 18.8418 5.12989 19.7443 5.43072 20.5835L1.67822 18.2085L4.90822 14.6935C4.74989 15.7227 4.70239 16.7993 4.81322 17.8918ZM30.0832 28.5002H25.3332V25.3335C25.3332 23.6538 24.666 22.0429 23.4782 20.8552C22.2905 19.6674 20.6796 19.0002 18.9999 19.0002C17.3202 19.0002 15.7093 19.6674 14.5215 20.8552C13.3338 22.0429 12.6666 23.6538 12.6666 25.3335H9.49989C8.66004 25.3335 7.85458 25.6671 7.26072 26.261C6.66685 26.8549 6.33322 27.6603 6.33322 28.5002C6.33322 29.34 6.66685 30.1455 7.26072 30.7393C7.85458 31.3332 8.66004 31.6668 9.49989 31.6668H30.0832C30.5032 31.6668 30.9059 31.5 31.2028 31.2031C31.4997 30.9062 31.6666 30.5034 31.6666 30.0835C31.6666 29.6636 31.4997 29.2608 31.2028 28.9639C30.9059 28.667 30.5032 28.5002 30.0832 28.5002Z" fill="white"/>
</svg>
