<svg width="88" height="88" viewBox="0 0 88 88" fill="none" xmlns="http://www.w3.org/2000/svg">
<path d="M22.0001 7.33301C20.0552 7.33301 18.1899 8.10562 16.8146 9.48089C15.4394 10.8562 14.6667 12.7214 14.6667 14.6663V69.6663C14.6667 73.7363 17.9301 76.9997 22.0001 76.9997V80.6663H29.3334V76.9997H58.6667V80.6663H66.0001V76.9997C70.0701 76.9997 73.3334 73.7363 73.3334 69.6663V14.6663C73.3334 12.7214 72.5608 10.8562 71.1855 9.48089C69.8103 8.10562 67.945 7.33301 66.0001 7.33301H22.0001ZM22.0001 14.6663H40.3334V69.6663H22.0001V14.6663ZM47.6667 14.6663H66.0001V69.6663H47.6667V14.6663ZM29.3334 36.6663V47.6663H36.6667V36.6663H29.3334ZM51.3334 36.6663V47.6663H58.6667V36.6663H51.3334Z" fill="white"/>
</svg>
