<svg width="73" height="83" viewBox="0 0 73 83" fill="none" xmlns="http://www.w3.org/2000/svg">
<path d="M22.7471 30.25C23.4764 30.25 24.1759 30.5397 24.6916 31.0555C25.2073 31.5712 25.4971 32.2707 25.4971 33V66C25.4971 66.7293 25.2073 67.4288 24.6916 67.9445C24.1759 68.4603 23.4764 68.75 22.7471 68.75C22.0177 68.75 21.3183 68.4603 20.8025 67.9445C20.2868 67.4288 19.9971 66.7293 19.9971 66V33C19.9971 32.2707 20.2868 31.5712 20.8025 31.0555C21.3183 30.5397 22.0177 30.25 22.7471 30.25ZM36.4971 30.25C37.2264 30.25 37.9259 30.5397 38.4416 31.0555C38.9573 31.5712 39.2471 32.2707 39.2471 33V66C39.2471 66.7293 38.9573 67.4288 38.4416 67.9445C37.9259 68.4603 37.2264 68.75 36.4971 68.75C35.7677 68.75 35.0683 68.4603 34.5525 67.9445C34.0368 67.4288 33.7471 66.7293 33.7471 66V33C33.7471 32.2707 34.0368 31.5712 34.5525 31.0555C35.0683 30.5397 35.7677 30.25 36.4971 30.25ZM52.9971 33C52.9971 32.2707 52.7073 31.5712 52.1916 31.0555C51.6759 30.5397 50.9764 30.25 50.2471 30.25C49.5177 30.25 48.8182 30.5397 48.3025 31.0555C47.7868 31.5712 47.4971 32.2707 47.4971 33V66C47.4971 66.7293 47.7868 67.4288 48.3025 67.9445C48.8182 68.4603 49.5177 68.75 50.2471 68.75C50.9764 68.75 51.6759 68.4603 52.1916 67.9445C52.7073 67.4288 52.9971 66.7293 52.9971 66V33Z" fill="white"/>
<path d="M72.2471 16.5C72.2471 17.9587 71.6676 19.3576 70.6362 20.3891C69.6047 21.4205 68.2058 22 66.7471 22H63.9971V71.5C63.9971 74.4174 62.8381 77.2153 60.7752 79.2782C58.7123 81.3411 55.9145 82.5 52.9971 82.5H19.9971C17.0797 82.5 14.2818 81.3411 12.2189 79.2782C10.156 77.2153 8.99707 74.4174 8.99707 71.5V22H6.24707C4.78838 22 3.38943 21.4205 2.35798 20.3891C1.32653 19.3576 0.74707 17.9587 0.74707 16.5V11C0.74707 9.54131 1.32653 8.14236 2.35798 7.11091C3.38943 6.07946 4.78838 5.5 6.24707 5.5H25.4971C25.4971 4.04131 26.0765 2.64236 27.108 1.61091C28.1394 0.579463 29.5384 0 30.9971 0L41.9971 0C43.4558 0 44.8547 0.579463 45.8862 1.61091C46.9176 2.64236 47.4971 4.04131 47.4971 5.5H66.7471C68.2058 5.5 69.6047 6.07946 70.6362 7.11091C71.6676 8.14236 72.2471 9.54131 72.2471 11V16.5ZM15.1461 22L14.4971 22.3245V71.5C14.4971 72.9587 15.0765 74.3576 16.108 75.3891C17.1394 76.4205 18.5384 77 19.9971 77H52.9971C54.4558 77 55.8547 76.4205 56.8862 75.3891C57.9176 74.3576 58.4971 72.9587 58.4971 71.5V22.3245L57.8481 22H15.1461ZM6.24707 16.5H66.7471V11H6.24707V16.5Z" fill="white"/>
</svg>
