<svg width="89" height="88" viewBox="0 0 89 88" fill="none" xmlns="http://www.w3.org/2000/svg">
<path d="M50.3183 12.8477C47.8279 8.20569 41.1751 8.20569 38.6891 12.8477L30.5315 28.0277C30.4023 28.2951 30.2204 28.5335 29.9967 28.7287C29.7729 28.9239 29.512 29.0718 29.2296 29.1635C28.9472 29.2551 28.6491 29.2887 28.3534 29.2621C28.0577 29.2355 27.7704 29.1493 27.5088 29.0087C27.2473 28.8682 27.0169 28.6761 26.8316 28.4441C26.6463 28.2121 26.5098 27.945 26.4305 27.6589C26.3511 27.3728 26.3305 27.0736 26.3698 26.7793C26.4092 26.485 26.5077 26.2017 26.6595 25.9465L34.8127 10.7577C38.9619 3.03129 50.0455 3.03129 54.1947 10.7577L63.0299 27.2225L64.3279 19.4345C64.4387 18.8733 64.7637 18.3774 65.234 18.0518C65.7043 17.7263 66.2829 17.5967 66.8472 17.6905C67.4114 17.7844 67.9169 18.0943 68.2565 18.5545C68.5961 19.0148 68.7431 19.5893 68.6663 20.1561L66.4663 33.3561C66.4139 33.6695 66.2942 33.9678 66.1156 34.2305C65.9369 34.4933 65.7034 34.7142 65.4312 34.8781C65.159 35.042 64.8546 35.145 64.5388 35.18C64.223 35.215 63.9034 35.1812 63.6019 35.0809L50.4019 30.6809C49.8693 30.4806 49.435 30.0817 49.1902 29.568C48.9454 29.0544 48.9092 28.4658 49.0892 27.926C49.2691 27.3862 49.6512 26.9371 50.1552 26.673C50.6593 26.4089 51.246 26.3504 51.7923 26.5097L58.9291 28.8857L50.3183 12.8389V12.8477ZM68.0195 41.0385C67.7561 41.1701 67.5217 41.3532 67.3304 41.577C67.139 41.8008 66.9946 42.0607 66.9055 42.3414C66.8165 42.622 66.7847 42.9177 66.812 43.2109C66.8394 43.504 66.9253 43.7887 67.0647 44.0481L75.9967 60.6801C76.5371 61.6858 76.8074 62.8145 76.7811 63.9559C76.7548 65.0973 76.4329 66.2124 75.8468 67.1922C75.2607 68.172 74.4305 68.983 73.4372 69.546C72.4439 70.1089 71.3216 70.4046 70.1799 70.4041H52.0079L57.0547 65.3573C57.4678 64.9448 57.7001 64.385 57.7005 63.8012C57.7009 63.2174 57.4694 62.6574 57.0569 62.2443C56.6443 61.8312 56.0846 61.5989 55.5008 61.5985C54.917 61.5981 54.357 61.8296 53.9439 62.2421L45.1439 71.0421C44.939 71.2465 44.7764 71.4892 44.6655 71.7565C44.5546 72.0238 44.4975 72.3103 44.4975 72.5997C44.4975 72.8891 44.5546 73.1756 44.6655 73.4429C44.7764 73.7102 44.939 73.9529 45.1439 74.1573L53.9439 82.9573C54.357 83.3698 54.917 83.6013 55.5008 83.6009C56.0846 83.6005 56.6443 83.3682 57.0569 82.9551C57.4694 82.542 57.7009 81.9819 57.7005 81.3981C57.7001 80.8143 57.4678 80.2546 57.0547 79.8421L52.0123 74.8041H70.1843C78.5003 74.8041 83.8067 65.9293 79.8731 58.5989L70.9411 41.9669C70.6705 41.4625 70.2141 41.0834 69.6686 40.9101C69.1231 40.7367 68.5315 40.7828 68.0195 41.0385ZM18.8187 70.3997H33.4971C34.0805 70.3997 34.6401 70.6315 35.0527 71.0441C35.4653 71.4566 35.6971 72.0162 35.6971 72.5997C35.6971 73.1832 35.4653 73.7427 35.0527 74.1553C34.6401 74.5679 34.0805 74.7997 33.4971 74.7997H18.8187C10.5027 74.7997 5.19187 65.9249 9.12547 58.5945L18.5591 41.0253L9.99227 43.8853C9.71781 43.9766 9.42805 44.0129 9.13955 43.9922C8.85104 43.9716 8.56943 43.8942 8.3108 43.7647C8.05217 43.6352 7.82158 43.456 7.63221 43.2374C7.44283 43.0187 7.29837 42.765 7.20707 42.4905C7.11578 42.216 7.07944 41.9263 7.10012 41.6378C7.12081 41.3493 7.19812 41.0676 7.32764 40.809C7.45716 40.5504 7.63635 40.3198 7.85498 40.1304C8.07362 39.941 8.32741 39.7966 8.60187 39.7053L21.8019 35.3053C22.355 35.1214 22.9586 35.1645 23.4799 35.4252C24.0013 35.6858 24.3979 36.1428 24.5827 36.6957L28.9827 49.8957C29.1488 50.4437 29.0946 51.0349 28.8318 51.5437C28.5689 52.0524 28.118 52.4387 27.5749 52.6203C27.0318 52.8019 26.4393 52.7645 25.9233 52.5162C25.4073 52.2679 25.0084 51.8282 24.8115 51.2905L22.2155 43.5113L13.0019 60.6757C12.4615 61.6814 12.1912 62.8101 12.2174 63.9515C12.2437 65.0929 12.5656 66.208 13.1517 67.1878C13.7378 68.1676 14.5681 68.9786 15.5614 69.5416C16.5546 70.1045 17.677 70.4002 18.8187 70.3997Z" fill="white"/>
</svg>
