<svg width="46" height="46" viewBox="0 0 46 46" fill="none" xmlns="http://www.w3.org/2000/svg">
<path d="M29.3484 22.1016L20.7234 16.3516C20.5609 16.2432 20.372 16.181 20.1769 16.1716C19.9819 16.1622 19.7879 16.2059 19.6157 16.2982C19.4436 16.3904 19.2997 16.5277 19.1995 16.6954C19.0994 16.863 19.0466 17.0547 19.0469 17.25V28.75C19.0466 28.9453 19.0994 29.1371 19.1995 29.3047C19.2997 29.4724 19.4436 29.6097 19.6157 29.7019C19.7879 29.7942 19.9819 29.8379 20.1769 29.8285C20.372 29.8191 20.5609 29.7569 20.7234 29.6485L29.3484 23.8985C29.4966 23.8001 29.6182 23.6666 29.7024 23.5099C29.7865 23.3531 29.8305 23.1779 29.8305 23C29.8305 22.8221 29.7865 22.647 29.7024 22.4902C29.6182 22.3335 29.4966 22.1999 29.3484 22.1016ZM21.2031 26.7357V19.2643L26.8058 23L21.2031 26.7357ZM41.7594 12.5782C41.6034 11.9721 41.3057 11.4117 40.8909 10.9431C40.476 10.4745 39.9558 10.1112 39.3731 9.88285C33.2422 7.50918 23.4079 7.54691 23 7.54691C22.5921 7.54691 12.7578 7.50918 6.61969 9.88285C6.03832 10.1121 5.51958 10.4759 5.10603 10.9444C4.69248 11.4129 4.3959 11.9728 4.24063 12.5782C3.78242 14.3553 3.23438 17.6094 3.23438 23C3.23438 28.3907 3.78242 31.6448 4.24063 33.4219C4.39663 34.028 4.6943 34.5884 5.10914 35.0569C5.52399 35.5255 6.04417 35.8889 6.62688 36.1172C12.7578 38.4909 22.5903 38.4532 23 38.4532H23.1276C24.3692 38.4532 33.5495 38.3741 39.3803 36.1172C39.963 35.8889 40.4832 35.5255 40.898 35.0569C41.3129 34.5884 41.6106 34.028 41.7666 33.4219C42.2248 31.6484 42.7728 28.4032 42.7728 23C42.7728 17.5968 42.2266 14.3553 41.7594 12.5782ZM39.6714 32.8828C39.6022 33.159 39.4684 33.4148 39.2809 33.6291C39.0935 33.8435 38.8578 34.0102 38.5933 34.1155C32.8433 36.3311 23.1042 36.2969 23 36.2969C22.8958 36.2969 13.1693 36.3328 7.41211 34.1101C7.1476 34.0048 6.91191 33.8381 6.72446 33.6237C6.53701 33.4094 6.40318 33.1536 6.33398 32.8775C5.90094 31.2261 5.39062 28.1714 5.39062 23C5.39062 17.8286 5.90094 14.7739 6.32859 13.1172C6.39779 12.841 6.53162 12.5852 6.71907 12.3709C6.90651 12.1566 7.14221 11.9899 7.40672 11.8846C12.9483 9.74988 22.1968 9.70316 22.9569 9.70316H23C23.097 9.70316 32.8307 9.66722 38.5879 11.89C38.8524 11.9953 39.0881 12.162 39.2755 12.3763C39.463 12.5906 39.5968 12.8464 39.666 13.1226C40.0937 14.7739 40.604 17.8286 40.604 23.0054C40.604 28.1822 40.0991 31.2261 39.6714 32.8828Z" fill="white"/>
</svg>
